<svg width="10" height="11" fill="none" xmlns="http://www.w3.org/2000/svg"><g clip-path="url(#clip0_12582_765)"><path fill-rule="evenodd" clip-rule="evenodd" d="M.2 10.84c.22.214.578.214.798 0l4.67-4.546A1.072 1.072 0 006 5.516a1.08 1.08 0 00-.331-.777L.964.16A.577.577 0 00.171.155a.536.536 0 00-.129.604c.029.068.07.129.123.18l4.306 4.19a.536.536 0 010 .777L.2 10.062a.537.537 0 000 .777" fill="#6D71F9"/></g><g clip-path="url(#clip1_12582_765)"><path fill-rule="evenodd" clip-rule="evenodd" d="M4.2 10.84c.22.214.578.214.798 0L9.67 6.293a1.072 1.072 0 00.33-.778 1.08 1.08 0 00-.33-.777L4.964.16a.577.577 0 00-.793-.005.536.536 0 00-.129.604c.029.068.07.129.123.18l4.306 4.19a.536.536 0 010 .777L4.2 10.062a.537.537 0 000 .777" fill="#6D71F9"/></g><defs><clipPath id="clip0_12582_765"><path fill="#fff" d="M0 0h6v11H0z"/></clipPath><clipPath id="clip1_12582_765"><path fill="#fff" transform="translate(4)" d="M0 0h6v11H0z"/></clipPath></defs></svg>