<svg width="48" height="26" fill="none" xmlns="http://www.w3.org/2000/svg"><path fill-rule="evenodd" clip-rule="evenodd" d="M20.242 6.5c-.902.057-1.805.16-2.707.343v2.292a30.182 30.182 0 012.707-.366v-2.27zM13.79 22.957H6.902v.814c0 .126.09.229.194.229h7.15c2.741-1.157 6.487-2.029 9.914-2.029 3.438 0 7.219.849 10.006 2.029h7.116c.125 0 .205-.103.205-.23v-.836h-6.876c-2.764-1.18-6.682-2.063-10.45-2.04-3.747 0-7.665.883-10.372 2.063z" fill="#6A3D92"/><path fill-rule="evenodd" clip-rule="evenodd" d="M4.594 8.127a.356.356 0 00-.194.31V9.72c.16-.08.331-.16.503-.24 11.49-5.857 26.407-5.949 38.446-.07.205.104.423.207.64.31V8.436c0-.172-.137-.275-.206-.31-11.97-6.039-27.139-6.039-39.189 0z" fill="#6A3D92"/><path fill-rule="evenodd" clip-rule="evenodd" d="M41.761 13.261l.697.585 1.176.046c.172 0 .366-.126.366-.344v-2.143a.416.416 0 00-.171-.31c-1.93-1.111-3.541-1.662-5.654-2.43v2.19c.468.068 1.096.504.502.94l-2.832 1.948v-2.75c0-.299-.012-.803.73-.631l.64.137V8.356c-5.151-1.696-10.154-2.27-16.15-1.937v2.224c.56-.092.925.263.936.882l-.103 7.071c0 .573-.445.837-.913.986-.24.034-.491.057-.731.092V9.537c-.903.068-1.805.206-2.707.366v7.679c0 .481-.057.55-.526.665-.457.103-.765.195-1.233.31v-8.104c0-.171-.046-.848.628-1.123.103-.034.206-.068.308-.091V6.98c-1.759.286-3.438.71-5.002 1.18v2.098l.434-.023c.73-.012.913.378.936.905v3.725l-3.61-5.96c-1.77.676-3.266 1.25-4.91 2.166a.436.436 0 00-.172.333v2.154c0 .207.16.367.343.344l.97-.011c.16 0 .343.126.343.344v2.704c0 .24-.228.367-.342.367l-.971.011c-.263 0-.343.195-.343.367v2.097c0 .127.046.23.137.276L6.88 21.89l3.266-.046V19.14l-1.028.011c-.205 0-.365-.137-.365-.344v-4.745l4.603 7.599c6.773-2.796 14.883-2.693 21.599-.034l2.25.091v-2.704l-.88-.035c-.308-.023-.48-.172-.48-.538v-1.41l1.497-1.02 1.473 2.533c.138.332-.102.515-.308.504h-.308v2.705l3.335.126 2.341-1.822a.322.322 0 00.138-.264v-2.097a.369.369 0 00-.366-.367l-2.079-.092a.322.322 0 01-.308-.206l-1.577-2.659 1.645-1.123a.34.34 0 01.434.011zM25.314 8.998c.011-.378.365-.401 1.108-.344.742.046 1.816.298 1.804 1.547-.023 1.215-1.713 1.788-2.912 1.868V8.998zm0 8.412v-3.232c.011-.573 1.062-.435 1.37-.412.64.011 2.01.412 2.033 1.764.023 1.777-1.884 1.949-3.403 1.88zm7.264 1.158c-.662-.172-.97-.241-.97-.241s.479-.745.376-1.983c-.103-1.238-.537-2.154-1.759-3.174.377-.23 1.062-.94 1.177-2.086.137-1.123-.297-2.235-.297-2.235s.308.046 1.199.23c.88.171.822 1.317.822 1.317v7.644c.012.012.126.7-.548.528z" fill="#6A3D92"/></svg>