<svg width="47" height="47" fill="none" xmlns="http://www.w3.org/2000/svg"><path d="M17.576 20.977c-.224-.774-.474-1.35-.689-1.522-.134-.108-.232-.072-.232-.072-.152.01-.268.424-.376.838-.089.333-.187.648-.196.765h1.493v-.01zm12.938-2.737c-.367-.108-.752-.09-.752-.09l.072 1.71s.295-.026.635-.17c.375-.163.643-.478.634-.847-.009-.207-.25-.495-.59-.603zm-6.804 7.292c-4.032 0-7.51 1.792-7.51 3.736 0 1.936 3.344 3.728 7.385 3.728s7.644-1.792 7.644-3.728c0-1.953-3.478-3.736-7.519-3.736zm-1.716 5.771c-.376.37-.832.468-1.341.468-.474 0-.939-.189-1.207-.486-.295-.324-.376-.82-.385-1.215h.546c.009.26.125 1.134 1.073 1.134.34 0 1.117-.18 1.117-.81 0-.342-.206-.648-1.02-.846-.062-.018-.974-.27-1.269-.54-.34-.307-.34-.757-.34-1.027 0-.837.957-1.27 1.619-1.233.483.027 1.448.234 1.448 1.53h-.545c-.027-.234-.125-.99-.975-.99-.912 0-1.019.54-.992.783.018.171.116.603 1.055.801.206.045.983.198 1.278.558.17.172.287.415.295.685.036.432-.071.909-.357 1.188zm1.001.954h-.402l1.502-5.5h.384l-1.484 5.5zm4.774-4.798h-2.297v1.45h2.011v.576h-2.011v2.142h-.573v-4.744h2.87v.576z" fill="#ED1C24"/><path d="M43.084 20.059c-3.478 1.44-6.366-2.99-2.485-5.294-1.94-1.728-5.669-3.412-9.799-.315.876-4.987-1.422-7.247-4.166-8.949-.403 1.35-.912 2.224-2.54 2.503-1.895.396-3.415-1.53-3.299-2.52-4.622 1.953-5.257 6.634-4.318 9.083-.232-.468-4.854-3.79-9.7.351 3.933 2.08.626 6.626-2.459 5.213.277 5.744 4.613 7.382 7.43 7.697-4.712 4.573-2.53 9.246-.528 11.145 2.12-2.88 5.847-1.8 5.543 2.152 3.55-.216 5.454-2.404 6.938-5.005 1.994 3.25 4.354 4.969 7.045 4.843-.062-.792.117-1.8.778-2.503 1.028-1.098 2.754-1.476 4.613.468 3.148-3.619 2.969-7.94-.465-11.172 6.178-1.467 7.296-4.663 7.412-7.697zM24.193 17.33s.134-.513.885-.55c.706-.035.742.478.688.667-.08.288-.295.441-.304.585-.035.477-.017 3.322-.017 3.322s.017.54.634.522c.59-.018.581-.666.581-.729l.018-3.403c0-.027-.152-.135-.143-.324.01-.207.51-.64.51-.64s.545-.017.644.1c.205.234.214 1.36.205 2.557-.009 1.395-.044 2.908-.044 3.42 0 .307-.17.424-.465.442-.233.018-.34-.072-.555-.27-.107-.108-.554.027-.813.18-.152.09-.68.252-1.252.018-.608-.252-.59-.99-.608-1.513 0-1.035-.071-4.078.036-4.384zm-4.426-.531c.662-.396 1.18 1.098 1.029 2.44-.054.495.482-.217.992-1.117.313-.522.572-1.206.778-1.314.214-.108.402 0 .652.279.206.225.224.774-.035 1.161-.501.73-1.663 1.26-1.797 1.414-.108.135.885 1.35 1.081 1.62.161.225.474.432.734.657.268.234.482.486.51.657.035.298-.242.622-.502.667-.286.054-1.001.144-1.403-.486-.403-.64-1.028-3.682-1.118-2.287-.107 1.485-.554 2.52-.599 2.665-.044.126-.152.144-.259.126-.161 0-.107-.19-.054-.288.054-.19-.09-3.466-.688-5.276-.01.027-.054-.477.68-.918zm-5.713 5.347c-.134.252-.447.604-.804.847-.277.18-.572.27-.832.279-.626 0-2.682-.864-2.467-2.26a.66.66 0 01.384-.468c.232-.1.545-.063.662.063.125.135.277.45.34.585.196.378.527.846.893.927.08.018.295.036.43-.072.071-.063.107-.117.098-.279-.054-.828-1.19-1.971-1.636-2.592a1.601 1.601 0 01-.179-1.495c.125-.297.706-.918 1.69-.891.483.018 1.216.729 1.412 1.125.072.19.036.432-.044.55-.161.251-.715.287-.832.062-.134-.243-.313-.63-.572-.729a.338.338 0 00-.349.1c-.107.116-.143.53.277 1.007.42.469 1.234 1.216 1.476 1.72.223.414.286 1.071.053 1.521zm.617-.162v-.198c.01-.297.116-.999.42-1.54.653-1.188 1.288-2.205 1.342-2.51 0 0-.278-.073-.296-.38-.009-.125.126-.611.975-.611.063 0 .295.09.536.315.555.504 1.324 1.701 1.324 3.142 0 0 .017 3.007-.51 3.178-.116.036-.224-.171-.33-.45-.162-.469-.296-1.072-.305-1.099 0-.009-.474 0-.92 0h-.823c-.01.01.152.747.044 1.099-.125.495-.598.333-.679.333-.384-.072-.751-.567-.778-1.279zm8.932 11.524c-4.47 0-8.002-1.963-8.002-4.268 0-2.295 3.621-4.195 8.082-4.195 4.47 0 8.11 1.9 8.11 4.195 0 2.314-3.729 4.268-8.19 4.268zm8.654-10.218h-.027c-.16 0-.599-.153-.831-.405-.152-.144-.349-.487-.411-.64-.116-.279-.268-.648-.501-.972-.054-.063-.232-.315-.26-.342-.187-.19-.402-.405-.402-.099.027.801.18.9.269 1.341.098.442-.01 1.099-.51 1.08-.295-.035-.554-.098-.715-.332-.134-.198-.206-.72-.17-1.36.08-1.386.053-1.305.134-3.178a1.822 1.822 0 00-.134-.693c-.099-.099-.242-.261-.233-.46.01-.17.233-.314.546-.377a4.469 4.469 0 011.028-.1c.188 0 .733.037.903.055.733.117 1.6.558 1.573 1.548.018 1.099-1.439 1.81-1.609 1.945-.179.144 1.86 1.251 1.86 2.386.018.513-.376.594-.51.603zm4.685.099c-.116.036-.224-.171-.33-.45-.162-.469-.296-1.072-.305-1.099 0-.009-.474 0-.92 0h-.823c-.01.01.152.747.044 1.099-.125.495-.598.333-.679.333-.375-.063-.751-.567-.778-1.279v-.198c.01-.297.116-.999.42-1.54.653-1.188 1.288-2.205 1.342-2.51 0 0-.278-.073-.295-.379-.01-.126.125-.612.965-.612.063 0 .295.09.537.315.554.504 1.323 1.701 1.323 3.142.009 0 .035 2.998-.5 3.178z" fill="#ED1C24"/><path d="M35.377 19.455c-.134-.107-.232-.072-.232-.072-.152.01-.268.424-.376.838-.09.333-.188.648-.197.765h1.494c-.224-.783-.474-1.36-.689-1.53z" fill="#ED1C24"/></svg>