<svg width="40" height="50" fill="none" xmlns="http://www.w3.org/2000/svg"><path fill-rule="evenodd" clip-rule="evenodd" d="M33.359 17.89c.086-.513.173-1.054.317-1.566.288-1.139.634-1.879 1.096-2.562l-4.268-4.298c-3.604 1.879-6.488 1.338-10.294-.455-3.806 1.793-6.69 2.334-10.294.455L5.65 13.762c.461.683.778 1.423 1.096 2.562.144.54.26 1.053.317 1.565H33.36z" fill="#E1251B"/><path d="M36.242 30.356c.75 4.782-2.797 7.885-7.18 8.682-1.269.227-2.74.256-4.037.37-1.557.142-3.344.398-4.815 1.138-1.47-.74-3.258-.968-4.815-1.138-1.298-.114-2.768-.143-4.037-.37-4.383-.797-7.9-3.9-7.18-8.682.346-2.277 1.759-4.668 2.422-6.917.461-1.508.635-2.988.548-4.468h26.095c-.086 1.48.115 2.96.548 4.468.692 2.25 2.105 4.64 2.45 6.917z" fill="#001B71"/><path d="M20.21 42.083l-.144-.085c-1.615-.996-4.037-1.167-6.17-1.338-1.01-.085-1.961-.142-2.769-.284-2.595-.484-4.844-1.68-6.343-3.36-1.644-1.878-2.307-4.24-1.903-6.859.23-1.48.836-2.932 1.413-4.326.375-.911.778-1.85 1.038-2.761.634-2.164.692-4.27.115-6.405-.375-1.366-.778-2.02-1.413-2.818l-.173-.199 5.825-5.892.202.114c3.633 2.163 6.286 1.594 10.207-.313l.115-.057.116.057c5.017 2.42 7.381 2.02 10.207.313l.202-.114 5.824 5.892-.173.2c-.634.796-1.038 1.451-1.413 2.846-.576 2.134-.518 4.24.116 6.404.288.91.663 1.85 1.038 2.761.577 1.395 1.182 2.846 1.413 4.326.404 2.62-.26 4.982-1.932 6.86-1.5 1.708-3.749 2.904-6.344 3.359-.807.142-1.759.228-2.768.285-2.134.142-4.556.341-6.17 1.337l-.116.057zM4.64 13.677c.605.768 1.009 1.508 1.355 2.846.605 2.249.548 4.44-.115 6.689-.289.94-.692 1.907-1.067 2.818-.577 1.366-1.154 2.79-1.384 4.184-.606 3.956 1.557 8.454 7.814 9.592.778.143 1.73.2 2.71.285 2.134.142 4.556.341 6.286 1.31 1.73-.997 4.152-1.168 6.286-1.31.98-.086 1.932-.142 2.71-.285 6.229-1.138 8.42-5.636 7.815-9.592-.231-1.395-.808-2.818-1.384-4.184-.375-.911-.779-1.879-1.067-2.818-.663-2.277-.721-4.469-.116-6.689.346-1.338.779-2.078 1.356-2.846l-5.19-5.18c-3.72 2.134-6.46 1.565-10.439-.342-3.979 1.907-6.718 2.476-10.438.341l-5.132 5.18z" fill="#001B71"/><path d="M30.764 32.69h.144a.62.62 0 00.346-.085.359.359 0 00.115-.256c0-.143-.028-.228-.086-.285-.058-.057-.173-.085-.346-.085h-.144v.711h-.03zm-.663 1.424v-2.648h.75c.288 0 .49 0 .605.029a.904.904 0 01.288.142c.087.086.173.17.231.285a.779.779 0 01.087.37c0 .2-.058.37-.145.512a.685.685 0 01-.432.256l.72 1.082h-.807l-.605-1.053v1.053H30.1v-.029zm-4.614 0v-2.648h1.615v.57h-.923v.455h.865v.57h-.865v.455h.923v.598h-1.615zm-4.18 0v-2.021h-.577v-.627h1.903v.627h-.577v2.02h-.75zm-4.7 0v-2.648h.72v2.05h.894v.626h-1.615v-.029zm-3.836 0v-2.648h.721v2.648h-.72zm-4.527 0v-2.648H9.86v.57h-.923v.455h.865v.57h-.865v1.053h-.692zm19.867-4.64V22.7h4.123v1.48H29.9v1.167h2.191v1.451H29.9v1.139h2.335v1.508h-4.123v.029zm-4.498-3.558h.346c.404 0 .692-.057.865-.2.173-.142.26-.34.26-.626 0-.341-.087-.569-.26-.711-.173-.142-.461-.228-.865-.228h-.375v1.765h.029zm-1.701 3.558V22.7h1.903c.75 0 1.269.028 1.557.113.288.057.548.2.778.342.231.2.433.427.548.712.116.284.202.597.202.939 0 .512-.115.94-.375 1.28-.26.342-.634.542-1.124.655l1.845 2.733H25.17l-1.528-2.647v2.647h-1.73zM14.328 22.7h1.817V26c0 .484 0 .826.029 1.053.029.2.057.399.115.541a.73.73 0 00.375.399c.173.085.375.142.634.142.26 0 .462-.057.635-.142a.844.844 0 00.374-.399c.058-.142.087-.313.116-.54.029-.2.029-.57.029-1.054v-3.273h1.816v3.558c0 .74-.058 1.28-.144 1.65a2.11 2.11 0 01-.461.912c-.231.284-.548.484-.952.626-.404.142-.894.2-1.47.2-.577 0-1.067-.058-1.471-.2-.404-.142-.72-.342-.951-.626a2.722 2.722 0 01-.462-.911c-.086-.342-.144-.91-.144-1.651V22.7h.115zm-5.305 4.582c.26.313.548.541.807.683.26.143.52.228.779.228a.91.91 0 00.605-.2.615.615 0 00.23-.511c0-.228-.057-.399-.201-.513-.144-.114-.433-.256-.923-.37-.663-.17-1.124-.427-1.384-.683-.26-.285-.403-.683-.403-1.167 0-.655.201-1.167.634-1.594.432-.399.98-.626 1.672-.626a4.4 4.4 0 011.067.142c.346.114.635.256.952.456l-.577 1.337a2.592 2.592 0 00-.634-.398c-.231-.086-.433-.142-.635-.142a.838.838 0 00-.548.17.495.495 0 00-.201.399c0 .17.057.313.173.398.115.114.346.2.692.285l.086.028c.75.2 1.24.427 1.47.683.145.171.29.37.376.598.086.228.115.484.115.769 0 .711-.23 1.31-.692 1.736-.462.427-1.096.655-1.874.655a3.59 3.59 0 01-1.27-.228 3.349 3.349 0 01-1.095-.769l.779-1.366z" fill="#fff"/><path fill-rule="evenodd" clip-rule="evenodd" d="M20.182 10.859l.634 1.992 2.105-.028-1.701 1.252.663 1.992-1.701-1.252-1.673 1.252.635-1.992-1.673-1.252 2.076.028.635-1.992z" fill="#fff"/></svg>