<svg width="36" height="27" fill="none" xmlns="http://www.w3.org/2000/svg"><g clip-path="url(#clip0_90_762)"><path d="M2.353 4.974H14.22v12.57c0 2.014-1.457 3.471-3.47 3.471H3.328c-2.013 0-3.47-1.457-3.47-3.47v-1.237h5.116v.063c0 .88.64 1.53 1.53 1.53h1.594c.88 0 1.53-.64 1.53-1.53V8.099H2.354V4.973zm12.874 11.334v1.237c0 2.013 1.457 3.47 3.47 3.47h13.116c2.265 0 3.9-1.635 3.9-3.9v-1.772c0-2.264-1.636-3.9-3.9-3.9H21.475c-.88 0-1.53-.64-1.53-1.53v-.305c0-.88.64-1.53 1.53-1.53h6.983c.88 0 1.53.639 1.53 1.53h5.138V8.434c0-2.013-1.457-3.47-3.47-3.47h-12.53c-2.264 0-3.9 1.635-3.9 3.9v1.73c0 2.264 1.636 3.9 3.9 3.9h10.338c.881 0 1.531.64 1.531 1.53v.347c0 .88-.64 1.53-1.53 1.53h-7.57c-.881 0-1.531-.64-1.531-1.53v-.063h-5.137z" fill="#EA0013"/></g><defs><clipPath id="clip0_90_762"><path fill="#fff" d="M0 0h36v27H0z"/></clipPath></defs></svg>