<svg width="25" height="23" fill="none" xmlns="http://www.w3.org/2000/svg"><g clip-path="url(#clip0_90_774)" fill="#CA003D"><path d="M20.825 0H14.28c-1.011 0-1.84.816-1.84 1.812 0 .996.829 1.811 1.84 1.811h4.704v4.632c0 .995.828 1.811 1.84 1.811 1.011 0 1.84-.816 1.84-1.811V1.812c0-.996-.829-1.812-1.84-1.812zM8.384.06H1.84C.829.06 0 .863 0 1.87c0 .996.829 1.812 1.84 1.812h4.704v4.631c0 .996.828 1.812 1.84 1.812 1.011 0 1.84-.816 1.84-1.812V1.871C10.224.863 9.395.06 8.384.06zM20.85 12.538h-6.544c-1.011 0-1.84.816-1.84 1.812 0 .995.829 1.811 1.84 1.811h4.704v4.631c0 .996.829 1.812 1.84 1.812 1.011 0 1.84-.816 1.84-1.812V14.35c0-.995-.829-1.811-1.84-1.811z"/></g><defs><clipPath id="clip0_90_774"><path fill="#fff" d="M0 0h25v23H0z"/></clipPath></defs></svg>