<svg width="15" height="15" fill="none" xmlns="http://www.w3.org/2000/svg"><path fill-rule="evenodd" clip-rule="evenodd" d="M8.25.75a.75.75 0 00-1.5 0v13.5a.75.75 0 001.5 0V.75zm6.311 5.69L11.91 3.787a.75.75 0 00-1.061 1.06L12.11 6.11a.376.376 0 01-.265.641h-1.603a.75.75 0 000 1.5h1.601a.375.375 0 01.266.64l-1.261 1.261a.75.75 0 000 1.06v.002a.75.75 0 001.06 0l2.652-2.651.016-.017a1.5 1.5 0 00-.015-2.105zm-9.804.31H3.155a.375.375 0 01-.265-.64l1.262-1.262a.75.75 0 00-1.06-1.06L.439 6.44a1.5 1.5 0 000 2.12l2.653 2.653a.749.749 0 001.06-1.062l-1.26-1.26a.375.375 0 01.265-.641h1.6a.75.75 0 000-1.5z" fill="#fff"/><mask id="a" style="mask-type:alpha" maskUnits="userSpaceOnUse" x="0" y="0" width="15" height="15"><path fill-rule="evenodd" clip-rule="evenodd" d="M8.25.75a.75.75 0 00-1.5 0v13.5a.75.75 0 001.5 0V.75zm6.311 5.69L11.91 3.787a.75.75 0 00-1.061 1.06L12.11 6.11a.376.376 0 01-.265.641h-1.603a.75.75 0 000 1.5h1.601a.375.375 0 01.266.64l-1.261 1.261a.75.75 0 000 1.06v.002a.75.75 0 001.06 0l2.652-2.651.016-.017a1.5 1.5 0 00-.015-2.105zm-9.804.31H3.155a.375.375 0 01-.265-.64l1.262-1.262a.75.75 0 00-1.06-1.06L.439 6.44a1.5 1.5 0 000 2.12l2.653 2.653a.749.749 0 001.06-1.062l-1.26-1.26a.375.375 0 01.265-.641h1.6a.75.75 0 000-1.5z" fill="#fff"/></mask><g mask="url(#a)"><path fill="#BCBEFF" d="M6.176 0h2.647v15H6.176z"/></g></svg>