<svg width="20" height="20" fill="none" xmlns="http://www.w3.org/2000/svg"><path d="M12.432 0c1.34 0 2.01.912 2.01 1.957 0 1.305-1.164 2.512-2.68 2.512-1.268 0-2.008-.75-1.973-1.99 0-1.043.88-2.479 2.643-2.479zM8.309 20c-1.058 0-1.833-.652-1.093-3.524l1.214-5.092c.21-.814.246-1.141 0-1.141-.317 0-1.69.562-2.502 1.117l-.528-.88c2.572-2.186 5.53-3.467 6.8-3.467 1.058 0 1.234 1.273.706 3.23l-1.391 5.352c-.246.945-.141 1.271.106 1.271.317 0 1.357-.392 2.379-1.207l.6.814C12.098 19.02 9.365 20 8.309 20z" fill="#6D71F9"/></svg>