<svg width="31" height="32" fill="none" xmlns="http://www.w3.org/2000/svg"><g clip-path="url(#clip0_40_14)" fill="#CA003D"><path d="M28.788 0h-9.046a2.556 2.556 0 00-2.544 2.552 2.556 2.556 0 002.544 2.552h6.502v6.524a2.556 2.556 0 002.544 2.552 2.556 2.556 0 002.544-2.552V2.552A2.556 2.556 0 0028.788 0zM11.59.084H2.544A2.546 2.546 0 000 2.636a2.556 2.556 0 002.544 2.552h6.502v6.524a2.556 2.556 0 002.544 2.552 2.556 2.556 0 002.543-2.552V2.636A2.546 2.546 0 0011.59.084zm17.233 17.578h-9.046a2.556 2.556 0 00-2.544 2.552 2.556 2.556 0 002.544 2.552h6.502v6.524a2.556 2.556 0 002.544 2.552 2.556 2.556 0 002.544-2.552v-9.076a2.556 2.556 0 00-2.544-2.552z"/></g><defs><clipPath id="clip0_40_14"><path fill="#fff" d="M0 0h31v32H0z"/></clipPath></defs></svg>